<svg xmlns="http://www.w3.org/2000/svg" version="1.1" xmlns:xlink="http://www.w3.org/1999/xlink" xmlns:svgjs="http://svgjs.dev/svgjs" width="74" height="74"><svg width="74" height="74" viewBox="0 0 74 74" fill="none" xmlns="http://www.w3.org/2000/svg">
<rect width="74" height="74" fill="#111113"></rect>
<path fill-rule="evenodd" clip-rule="evenodd" d="M24.3527 23.0574C25.5953 20.9051 28.3475 20.1676 30.4998 21.4103C32.6521 22.6529 33.3895 25.4051 32.1469 27.5574L18.6469 50.9401C17.4042 53.0924 14.6521 53.8298 12.4998 52.5872C10.3475 51.3446 9.61002 48.5924 10.8527 46.4401L24.3527 23.0574ZM34.3512 33.4519C35.5938 31.2996 38.346 30.5622 40.4983 31.8048C42.6506 33.0474 43.3881 35.7996 42.1454 37.9519L34.6468 50.94C33.4041 53.0923 30.652 53.8297 28.4997 52.5871C26.3473 51.3444 25.6099 48.5923 26.8525 46.44L34.3512 33.4519ZM46.4998 21.4103C44.3475 20.1676 41.5953 20.9051 40.3527 23.0574C39.11 25.2097 39.8475 27.9619 41.9998 29.2045C44.1521 30.4471 46.9042 29.7097 48.1469 27.5574C49.3895 25.4051 48.6521 22.6529 46.4998 21.4103ZM45.3522 40.3816C46.5948 38.2293 49.347 37.4919 51.4993 38.7345C53.6516 39.9771 54.389 42.7293 53.1464 44.8816L49.6468 50.9431C48.4042 53.0954 45.652 53.8328 43.4997 52.5902C41.3474 51.3476 40.6099 48.5954 41.8526 46.4431L45.3522 40.3816ZM61.4998 21.4103C59.3475 20.1676 56.5953 20.9051 55.3527 23.0574L51.8531 29.1188C50.6105 31.2711 51.3479 34.0233 53.5002 35.2659C55.6525 36.5086 58.4047 35.7711 59.6473 33.6188L63.1469 27.5574C64.3895 25.4051 63.6521 22.6529 61.4998 21.4103Z" fill="#DAFF01"></path>
</svg><style>@media (prefers-color-scheme: light) { :root { filter: none; } }
@media (prefers-color-scheme: dark) { :root { filter: none; } }
</style></svg>