<svg width="24" height="20" viewBox="0 0 24 20" fill="none" xmlns="http://www.w3.org/2000/svg">
<g clip-path="url(#clip0_361_410)">
<path d="M0.11359 1.10249C0.0528329 0.51279 0.515505 0 1.10832 0H3.7638C5.30161 0 6.59039 1.16282 6.748 2.69254L8.47059 19.4118H4.70679C3.16898 19.4118 1.88019 18.2489 1.72259 16.7192L0.11359 1.10249Z" fill="#DAFF01"/>
<path d="M16.6225 8.85019C16.5724 8.2663 17.0328 7.76465 17.6188 7.76465H20.2464C21.8038 7.76465 23.1022 8.95635 23.2354 10.508L23.9999 19.4117H20.2828C18.7254 19.4117 17.427 18.22 17.2938 16.6683L16.6225 8.85019Z" fill="#DAFF01"/>
<path d="M16.2354 19.4121H12.4716C10.9337 19.4121 9.64496 18.2493 9.48735 16.7196L7.87835 1.10283C7.8176 0.513136 8.28027 0.00034523 8.87309 0.00034523H11.5286C13.0664 0.00034523 14.3552 1.16317 14.5128 2.69288L16.2354 19.4121Z" fill="#DAFF01"/>
<path d="M15.5293 3C15.5293 1.34315 16.8724 0 18.5293 0L21.9999 0V3.47059C21.9999 5.12744 20.6567 6.47059 18.9999 6.47059H18.5293C16.8724 6.47059 15.5293 5.12744 15.5293 3.47059V3Z" fill="#DAFF01"/>
</g>
<defs>
<clipPath id="clip0_361_410">
<rect width="24" height="19.4118" fill="white"/>
</clipPath>
</defs>
</svg>
