<svg width="182" height="32" viewBox="0 0 182 32" fill="none" xmlns="http://www.w3.org/2000/svg">
<path fill-rule="evenodd" clip-rule="evenodd" d="M38.3174 4.44756C36.7082 3.52672 34.6473 4.07894 33.7141 5.68098L31.1126 10.147C30.1794 11.749 30.7274 13.7942 32.3366 14.7151C33.9458 15.6359 36.0067 15.0837 36.9399 13.4816L39.5414 9.01563C40.4746 7.41359 39.9266 5.3684 38.3174 4.44756ZM10.5372 5.68098C11.4703 4.07894 13.5313 3.52672 15.1405 4.44756C16.7497 5.3684 17.2976 7.41359 16.3645 9.01563L6.28625 26.3173C5.35307 27.9193 3.29209 28.4715 1.68292 27.5507C0.0737594 26.6299 -0.474231 24.5847 0.458954 22.9826L10.5372 5.68098ZM18.0125 13.3837C18.9457 11.7816 21.0067 11.2294 22.6158 12.1503C24.225 13.0711 24.773 15.1163 23.8398 16.7183L18.2484 26.3172C17.3153 27.9192 15.2543 28.4715 13.6451 27.5506C12.036 26.6298 11.488 24.5846 12.4211 22.9826L18.0125 13.3837ZM27.1028 4.44756C25.5007 3.5308 23.436 4.07319 22.5069 5.66813C21.5779 7.26307 22.1363 9.30659 23.7384 10.2233C25.3404 11.1401 27.4052 10.5977 28.3342 9.00278C29.2633 7.40784 28.7048 5.36432 27.1028 4.44756ZM26.2373 18.5188C27.1705 16.9168 29.2315 16.3646 30.8406 17.2854C32.4498 18.2062 32.9978 20.2514 32.0646 21.8535L29.4631 26.3195C28.5299 27.9216 26.4689 28.4738 24.8598 27.5529C23.2506 26.6321 22.7026 24.5869 23.6358 22.9849L26.2373 18.5188Z" fill="#DAFF01"/>
<path d="M51.0819 25L48.7381 7.9375H51.7498L52.8866 17.4766L52.9686 18.1445L53.0741 17.4414L54.4217 7.9375H56.7772L58.2069 17.5117L58.3123 18.2148L58.3944 17.5L59.5545 7.9375H62.578L60.2108 25H57.2342L55.7459 15.7891L55.617 14.9219L55.4881 15.7891L54.0584 25H51.0819ZM65.847 12.3203H72.7494V22.3516H76.183V25H65.847V22.3516H69.4564V14.9805H65.847V12.3203ZM69.222 9.07422C69.222 8.82422 69.265 8.59375 69.3509 8.38281C69.4447 8.16406 69.5736 7.97656 69.7377 7.82031C69.9017 7.67187 70.097 7.55469 70.3236 7.46875C70.558 7.38281 70.8158 7.33984 71.097 7.33984C71.6752 7.33984 72.1322 7.50391 72.4681 7.83203C72.8119 8.15234 72.9838 8.56641 72.9838 9.07422C72.9838 9.58203 72.8119 10 72.4681 10.3281C72.1322 10.6484 71.6752 10.8086 71.097 10.8086C70.8158 10.8086 70.558 10.7656 70.3236 10.6797C70.097 10.5938 69.9017 10.4727 69.7377 10.3164C69.5736 10.168 69.4447 9.98828 69.3509 9.77734C69.265 9.55859 69.222 9.32422 69.222 9.07422ZM79.8739 25V12.3203H82.827L83.0263 14.0781C83.1903 13.8438 83.37 13.6289 83.5653 13.4336C83.7606 13.2383 83.9677 13.0625 84.1864 12.9062C84.5614 12.6406 84.9716 12.4375 85.4169 12.2969C85.8622 12.1562 86.3348 12.0859 86.8348 12.0859C87.4755 12.0859 88.0614 12.1797 88.5927 12.3672C89.1239 12.5547 89.5848 12.8516 89.9755 13.2578C90.3583 13.6719 90.6552 14.2031 90.8661 14.8516C91.0848 15.4922 91.1942 16.2734 91.1942 17.1953V25H87.9364V17.2422C87.9364 16.7422 87.8778 16.332 87.7606 16.0117C87.6513 15.6836 87.4911 15.4258 87.2802 15.2383C87.0692 15.0508 86.8153 14.9219 86.5184 14.8516C86.2216 14.7734 85.8856 14.7344 85.5106 14.7344C85.1981 14.7344 84.9091 14.7695 84.6434 14.8398C84.3856 14.9102 84.1552 15.0156 83.952 15.1562C83.788 15.2578 83.6395 15.3789 83.5067 15.5195C83.3739 15.6602 83.2528 15.8164 83.1434 15.9883V25H79.8739ZM95.7641 25L93.4203 7.9375H96.432L97.5688 17.4766L97.6508 18.1445L97.7563 17.4414L99.1039 7.9375H101.459L102.889 17.5117L102.995 18.2148L103.077 17.5L104.237 7.9375H107.26L104.893 25H101.916L100.428 15.7891L100.299 14.9219L100.17 15.7891L98.7406 25H95.7641ZM110.529 12.3203H117.432V22.3516H120.865V25H110.529V22.3516H114.139V14.9805H110.529V12.3203ZM113.904 9.07422C113.904 8.82422 113.947 8.59375 114.033 8.38281C114.127 8.16406 114.256 7.97656 114.42 7.82031C114.584 7.67187 114.779 7.55469 115.006 7.46875C115.24 7.38281 115.498 7.33984 115.779 7.33984C116.357 7.33984 116.814 7.50391 117.15 7.83203C117.494 8.15234 117.666 8.56641 117.666 9.07422C117.666 9.58203 117.494 10 117.15 10.3281C116.814 10.6484 116.357 10.8086 115.779 10.8086C115.498 10.8086 115.24 10.7656 115.006 10.6797C114.779 10.5938 114.584 10.4727 114.42 10.3164C114.256 10.168 114.127 9.98828 114.033 9.77734C113.947 9.55859 113.904 9.32422 113.904 9.07422ZM124.556 25V12.3203H127.509L127.708 14.0781C127.873 13.8438 128.052 13.6289 128.248 13.4336C128.443 13.2383 128.65 13.0625 128.869 12.9062C129.244 12.6406 129.654 12.4375 130.099 12.2969C130.544 12.1562 131.017 12.0859 131.517 12.0859C132.158 12.0859 132.744 12.1797 133.275 12.3672C133.806 12.5547 134.267 12.8516 134.658 13.2578C135.04 13.6719 135.337 14.2031 135.548 14.8516C135.767 15.4922 135.876 16.2734 135.876 17.1953V25H132.619V17.2422C132.619 16.7422 132.56 16.332 132.443 16.0117C132.333 15.6836 132.173 15.4258 131.962 15.2383C131.751 15.0508 131.498 14.9219 131.201 14.8516C130.904 14.7734 130.568 14.7344 130.193 14.7344C129.88 14.7344 129.591 14.7695 129.326 14.8398C129.068 14.9102 128.837 15.0156 128.634 15.1562C128.47 15.2578 128.322 15.3789 128.189 15.5195C128.056 15.6602 127.935 15.8164 127.826 15.9883V25H124.556ZM144.419 17.9922L142.614 19.9727V25H139.31V7.9375H142.614V15.7539L144.161 13.668L148.31 7.9375H152.341L146.599 15.4844L152.552 25H148.638L144.419 17.9922ZM155.211 12.3203H162.114V22.3516H165.547V25H155.211V22.3516H158.821V14.9805H155.211V12.3203ZM158.586 9.07422C158.586 8.82422 158.629 8.59375 158.715 8.38281C158.809 8.16406 158.938 7.97656 159.102 7.82031C159.266 7.67187 159.461 7.55469 159.688 7.46875C159.922 7.38281 160.18 7.33984 160.461 7.33984C161.04 7.33984 161.497 7.50391 161.833 7.83203C162.176 8.15234 162.348 8.56641 162.348 9.07422C162.348 9.58203 162.176 10 161.833 10.3281C161.497 10.6484 161.04 10.8086 160.461 10.8086C160.18 10.8086 159.922 10.7656 159.688 10.6797C159.461 10.5938 159.266 10.4727 159.102 10.3164C158.938 10.168 158.809 9.98828 158.715 9.77734C158.629 9.55859 158.586 9.32422 158.586 9.07422ZM175.215 9.21484V12.3203H179.949V14.7227H175.215V20.1719C175.215 20.6328 175.266 21.0195 175.367 21.332C175.477 21.6367 175.629 21.8789 175.824 22.0586C176.02 22.2461 176.254 22.3789 176.527 22.457C176.809 22.5352 177.121 22.5742 177.465 22.5742C177.715 22.5742 177.969 22.5625 178.227 22.5391C178.492 22.5156 178.746 22.4844 178.988 22.4453C179.223 22.4141 179.441 22.3789 179.645 22.3398C179.855 22.3008 180.035 22.2617 180.184 22.2227L180.5 24.4609C180.273 24.5938 180.008 24.7109 179.703 24.8125C179.398 24.9062 179.074 24.9844 178.73 25.0469C178.387 25.1094 178.027 25.1562 177.652 25.1875C177.285 25.2266 176.922 25.2461 176.562 25.2461C175.867 25.2461 175.234 25.1562 174.664 24.9766C174.102 24.7891 173.621 24.5 173.223 24.1094C172.816 23.7266 172.504 23.2383 172.285 22.6445C172.066 22.043 171.957 21.3242 171.957 20.4883V14.7227H169.062V12.3203H171.957V9.21484H175.215Z" fill="white"/>
</svg>
